<svg width="60" height="60" viewBox="0 0 60 60" fill="none" xmlns="http://www.w3.org/2000/svg">
<g clip-path="url(#clip0)">
<path d="M24.6845 28.1999C25.9296 27.5736 26.871 26.8761 27.516 26.1223C28.6636 24.7646 29.2299 22.9645 29.2299 20.7331C29.2299 18.5616 28.6636 16.7052 27.531 15.1489C25.6409 12.6136 22.4418 11.316 17.919 11.2485H0V47.8253H16.7076C18.5903 47.8253 20.3342 47.664 21.9468 47.334C23.5594 47.0002 24.9545 46.3889 26.1359 45.4963C27.186 44.72 28.0636 43.7562 28.7611 42.6199C29.8637 40.9022 30.415 38.9558 30.415 36.7881C30.415 34.688 29.9312 32.8991 28.9711 31.4289C27.9998 29.9588 26.5747 28.8825 24.6845 28.1999ZM7.39186 17.6016H15.4625C17.2364 17.6016 18.699 17.7928 19.8466 18.1716C21.1742 18.7229 21.838 19.8442 21.838 21.5544C21.838 23.0883 21.3318 24.1608 20.3304 24.7646C19.3216 25.3684 18.0127 25.6722 16.4076 25.6722H7.39186V17.6016ZM20.1542 40.8347C19.2616 41.266 18.0052 41.4798 16.3963 41.4798H7.39186V31.7252H16.5201C18.1102 31.7365 19.3478 31.9465 20.2329 32.3403C21.808 33.0528 22.5919 34.3579 22.5919 36.2668C22.5919 38.517 21.7818 40.0321 20.1542 40.8347Z" fill="#EC3F20"/>
<path d="M54.2332 12.9548H38.3432V17.5077H54.2332V12.9548Z" fill="#EC3F20"/>
<path d="M59.7536 30.9227C59.4236 28.8038 58.6961 26.9399 57.5635 25.331C56.3221 23.5083 54.747 22.1732 52.8306 21.3294C50.9217 20.4818 48.7728 20.058 46.3801 20.0618C42.3635 20.0618 39.1007 21.3181 36.5768 23.8121C34.0603 26.3136 32.8002 29.9101 32.8002 34.598C32.8002 39.5971 34.1916 43.2087 36.9893 45.4251C39.7758 47.6453 42.9935 48.7516 46.6463 48.7516C51.0679 48.7516 54.507 47.4353 56.9634 44.8101C58.5348 43.1524 59.4236 41.521 59.6186 39.9197H52.298C51.8743 40.711 51.383 41.3298 50.8204 41.7798C49.8003 42.6049 48.4727 43.0174 46.8451 43.0174C45.2962 43.0174 43.9836 42.6761 42.8885 41.9973C41.0809 40.9097 40.1358 39.0046 40.0158 36.2931H59.9937C60.0237 33.9567 59.9487 32.1603 59.7536 30.9227ZM40.1958 31.624C40.4583 29.8651 41.0959 28.47 42.1085 27.4386C43.121 26.4111 44.5537 25.8935 46.3876 25.8898C48.0789 25.8898 49.4928 26.3736 50.6442 27.3449C51.7805 28.3237 52.4218 29.7451 52.5531 31.624H40.1958Z" fill="#EC3F20"/>
</g>
<defs>
<clipPath id="clip0">
<rect width="60" height="60" fill="white"/>
</clipPath>
</defs>
</svg>
