<svg width="60" height="60" viewBox="0 0 60 60" fill="none" xmlns="http://www.w3.org/2000/svg">
<path d="M52.9688 0H7.03125C3.15422 0 0 3.15422 0 7.03125V52.9688C0 56.8458 3.15422 60 7.03125 60H52.9688C56.8458 60 60 56.8458 60 52.9688V7.03125C60 3.15422 56.8458 0 52.9688 0ZM55.3125 52.9688C55.3125 54.2611 54.2611 55.3125 52.9688 55.3125H39.6094V36.2109H46.8504L48.0469 28.9453H39.6094V23.9062C39.6094 21.917 41.1357 20.3906 43.125 20.3906H47.9297V13.125H43.125C37.1575 13.125 32.3463 17.959 32.3463 23.9266V28.9453H25.3125V36.2109H32.3463V55.3125H7.03125C5.73891 55.3125 4.6875 54.2611 4.6875 52.9688V7.03125C4.6875 5.73891 5.73891 4.6875 7.03125 4.6875H52.9688C54.2611 4.6875 55.3125 5.73891 55.3125 7.03125V52.9688Z" fill="#EC3F20"/>
</svg>
