<svg width="40" height="58" viewBox="0 0 40 58" fill="none" xmlns="http://www.w3.org/2000/svg">
<path d="M9.99999 57.9758C15.52 57.9758 20 53.647 20 48.3132V38.6506H9.99999C4.48 38.6506 0 42.9795 0 48.3132C0 53.647 4.48 57.9758 9.99999 57.9758Z" fill="#EC3F20"/>
<path d="M0 28.9878C0 23.654 4.48 19.3252 9.99999 19.3252H20V38.6504H9.99999C4.48 38.6504 0 34.3215 0 28.9878Z" fill="#EC3F20"/>
<path d="M0 9.6626C0 4.32884 4.48 0 9.99999 0H20V19.3252H9.99999C4.48 19.3252 0 14.9964 0 9.6626Z" fill="#EC3F20"/>
<path d="M20 0H30C35.52 0 40 4.32884 40 9.6626C40 14.9964 35.52 19.3252 30 19.3252H20V0Z" fill="#EC3F20"/>
<path d="M40 28.9878C40 34.3215 35.52 38.6504 30 38.6504C24.48 38.6504 20 34.3215 20 28.9878C20 23.654 24.48 19.3252 30 19.3252C35.52 19.3252 40 23.654 40 28.9878Z" fill="#EC3F20"/>
</svg>
