<svg width="50" height="50" viewBox="0 0 50 50" fill="none" xmlns="http://www.w3.org/2000/svg">
<path d="M0.53937 45.7194H9.62327C9.86576 45.7194 10.0785 45.5577 10.1436 45.3239L12.7928 35.7735H23.0773L25.9515 45.3351C26.0202 45.5634 26.2302 45.7194 26.4686 45.7194H35.8971C35.8988 45.7194 35.9005 45.7194 35.9013 45.7194C36.1995 45.7194 36.4411 45.4778 36.4411 45.1797C36.4411 45.1 36.4243 45.0244 36.393 44.9564L24.397 6.27061C24.3271 6.04482 24.1179 5.89062 23.8813 5.89062H12.3828C12.1453 5.89062 11.936 6.04561 11.8666 6.27256L0.0234516 45.0219C-0.0261579 45.1855 0.00401799 45.3632 0.105678 45.5007C0.207534 45.6383 0.368179 45.7194 0.53937 45.7194ZM21.4928 28.1397H14.3591L16.4671 20.6046C16.8499 19.2469 17.2118 17.6402 17.5617 16.0864C17.6417 15.7296 17.7206 15.3794 17.7987 15.037C18.2618 16.8985 18.771 18.9095 19.2817 20.6103L21.4928 28.1397Z" fill="#EC3F20"/>
<path d="M40.434 16.5266C40.1358 16.5266 39.8942 16.7682 39.8942 17.0664V45.1797C39.8942 45.4778 40.1358 45.7194 40.434 45.7194H49.1727C49.4708 45.7194 49.7124 45.4778 49.7124 45.1797V17.0664C49.7124 16.7682 49.4708 16.5266 49.1727 16.5266H40.434Z" fill="#EC3F20"/>
<path d="M44.746 14.1562C47.7905 14.1562 50 12.0916 50 9.2349C49.9337 6.3178 47.7968 4.2804 44.8035 4.2804C43.2754 4.2804 41.9186 4.80764 40.9829 5.76526C40.1049 6.66341 39.637 7.89954 39.6643 9.24701C39.6364 10.5516 40.1054 11.7656 40.9853 12.6667C41.923 13.6272 43.2587 14.1562 44.746 14.1562Z" fill="#EC3F20"/>
</svg>
