<svg width="50" height="50" viewBox="0 0 50 50" fill="none" xmlns="http://www.w3.org/2000/svg">
<path d="M0.606611 48.1896H10.4924C10.8275 48.1896 11.099 47.9181 11.099 47.583V4.03227C11.099 3.69718 10.8275 3.42566 10.4924 3.42566H0.606611C0.271519 3.42566 0 3.69718 0 4.03227V47.583C0 47.9181 0.271519 48.1896 0.606611 48.1896Z" fill="#EC3F20"/>
<path d="M30.1983 48.9003C34.1417 48.9003 37.6084 47.286 39.758 44.5152L40.0618 47.6417C40.0921 47.9525 40.3532 48.1896 40.6655 48.1896H49.3883C49.3902 48.1896 49.3922 48.1896 49.3931 48.1896C49.7282 48.1896 49.9998 47.9181 49.9998 47.583C49.9998 47.5441 49.9964 47.5065 49.9893 47.4696C49.8631 45.3431 49.7372 41.6641 49.7372 38.149V1.70598C49.7372 1.37088 49.4657 1.09937 49.1306 1.09937H39.3089C38.9738 1.09937 38.7022 1.37088 38.7022 1.70598V17.3061C36.9465 15.6143 34.174 14.6685 30.8442 14.6685C27.0832 14.6685 23.5578 16.1314 20.9171 18.7881C17.724 22.001 16.0538 26.5967 16.0871 32.0748C16.0871 41.8243 22.0214 48.9003 30.1983 48.9003ZM33.3641 39.8686C29.5931 39.8686 27.2506 36.7586 27.2506 31.7521C27.2506 27.8887 28.8691 23.377 33.4291 23.377C36.3175 23.377 38.0951 25.5538 38.5814 27.7199C38.6406 28.1984 38.7022 28.8719 38.7022 29.3609V33.4963C38.7022 34.362 38.6311 34.9905 38.4652 35.5975C38.4618 35.6094 38.4591 35.6213 38.4562 35.6335C37.9265 38.1667 35.88 39.8686 33.3641 39.8686Z" fill="#EC3F20"/>
</svg>
