<svg width="60" height="60" viewBox="0 0 60 60" fill="none" xmlns="http://www.w3.org/2000/svg">
<path d="M59.8475 17.6402C59.7069 14.4522 59.1913 12.2604 58.4526 10.3612C57.6906 8.34531 56.5183 6.54045 54.9823 5.04006C53.4817 3.51632 51.6645 2.33231 49.6716 1.58235C47.761 0.843826 45.5803 0.328282 42.3917 0.18772C39.1792 0.0352548 38.1594 0 30.0117 0C21.864 0 20.8441 0.0352548 17.6436 0.175816C14.4549 0.316377 12.2628 0.832379 10.3637 1.57044C8.34691 2.33231 6.5417 3.50442 5.04102 5.04006C3.51699 6.54045 2.33321 8.35722 1.58265 10.3498C0.843987 12.2604 0.328344 14.4403 0.187756 17.6283C0.0352615 20.8402 0 21.8598 0 30.006C0 38.1521 0.0352615 39.1717 0.17585 42.3717C0.316438 45.5597 0.832538 47.7515 1.5712 49.6507C2.33321 51.6666 3.51699 53.4715 5.04102 54.9718C6.5417 56.4956 8.35881 57.6796 10.3518 58.4296C12.2628 59.1681 14.443 59.6836 17.6321 59.8242C20.8322 59.9652 21.8525 60 30.0002 60C38.1479 60 39.1678 59.9652 42.3683 59.8242C45.557 59.6836 47.7491 59.1681 49.6482 58.4296C53.6813 56.8706 56.87 53.6825 58.4293 49.6507C59.1675 47.74 59.6836 45.5597 59.8242 42.3717C59.9647 39.1717 60 38.1521 60 30.006C60 21.8598 59.9881 20.8402 59.8475 17.6402ZM54.4433 42.1373C54.3142 45.0675 53.8219 46.6499 53.4116 47.7048C52.4032 50.3187 50.3283 52.3932 47.7139 53.4014C46.6588 53.8116 45.0647 54.3038 42.1453 54.4325C38.98 54.5735 38.0307 54.6083 30.0236 54.6083C22.0165 54.6083 21.0553 54.5735 17.9014 54.4325C14.9706 54.3038 13.3879 53.8116 12.3328 53.4014C11.0318 52.9207 9.84758 52.1588 8.88636 51.1625C7.88988 50.1896 7.12786 49.0174 6.64703 47.7167C6.23671 46.6618 5.74442 45.0675 5.61574 42.1492C5.47469 38.9845 5.43989 38.0349 5.43989 30.0293C5.43989 22.0237 5.47469 21.0627 5.61574 17.9099C5.74442 14.9796 6.23671 13.3973 6.64703 12.3424C7.12786 11.0412 7.88988 9.85761 8.89827 8.89611C9.87094 7.89982 11.0433 7.13795 12.3447 6.65766C13.3998 6.24742 14.9944 5.75523 17.9133 5.62612C21.0786 5.48555 22.0284 5.4503 30.035 5.4503C38.0541 5.4503 39.0034 5.48555 42.1572 5.62612C45.088 5.75523 46.6707 6.24742 47.7258 6.65766C49.0268 7.13795 50.211 7.89982 51.1723 8.89611C52.1687 9.86905 52.9308 11.0412 53.4116 12.3424C53.8219 13.3973 54.3142 14.9911 54.4433 17.9099C54.5839 21.0746 54.6192 22.0237 54.6192 30.0293C54.6192 38.0349 54.5839 38.9726 54.4433 42.1373Z" fill="#EC3F20"/>
<path d="M30.0117 14.5928C21.5008 14.5928 14.5955 21.4963 14.5955 30.006C14.5955 38.5157 21.5008 45.4192 30.0117 45.4192C38.523 45.4192 45.4278 38.5157 45.4278 30.006C45.4278 21.4963 38.523 14.5928 30.0117 14.5928ZM30.0117 40.0042C24.4903 40.0042 20.0116 35.5268 20.0116 30.006C20.0116 24.4852 24.4903 20.0078 30.0117 20.0078C35.5335 20.0078 40.0118 24.4852 40.0118 30.006C40.0118 35.5268 35.5335 40.0042 30.0117 40.0042Z" fill="#EC3F20"/>
<path d="M49.6368 13.9833C49.6368 15.9704 48.0253 17.5816 46.0374 17.5816C44.0499 17.5816 42.4384 15.9704 42.4384 13.9833C42.4384 11.9957 44.0499 10.385 46.0374 10.385C48.0253 10.385 49.6368 11.9957 49.6368 13.9833Z" fill="#EC3F20"/>
</svg>
