<svg width="58" height="63" viewBox="0 0 58 63" fill="none" xmlns="http://www.w3.org/2000/svg">
<path d="M57.5172 11.9766L46.0183 0.482384C45.3744 -0.160795 44.331 -0.160795 43.6874 0.482384L15.0955 29.0623C14.8649 29.2929 14.7078 29.5869 14.6443 29.9065L11.7954 44.2484C11.6884 44.7879 11.8574 45.3454 12.2466 45.7344C12.5588 46.0463 12.9792 46.2168 13.4121 46.2168C13.5187 46.2168 13.6264 46.2065 13.7332 46.1852L28.081 43.3374C28.401 43.2739 28.6948 43.1169 28.9255 42.8865L57.5172 14.3065C58.1609 13.6631 58.1609 12.6202 57.5172 11.9766ZM16.174 39.1254L17.6631 31.6289L26.3579 40.3201L18.8583 41.8086L16.174 39.1254Z" fill="#EC3F20"/>
<path d="M43.1446 49.8785C27.3818 43.2821 17.1201 54.1912 14.0554 55.8479C10.1378 57.9657 4.61888 60.4544 3.33594 56.1462C2.56197 53.5471 6.74677 50.769 9.51788 49.9033C11.5396 49.2715 10.6762 46.0903 8.64149 46.7258C4.33825 48.0704 -0.796553 51.6938 0.103784 56.7951C0.772719 60.5857 5.52515 64.0431 14.6885 59.2365C21.3488 55.7434 25.8734 48.508 39.9017 52.2548C44.5097 53.4854 48.2348 56.4878 49.8298 61.054C50.526 63.0464 53.7111 62.1895 53.0085 60.178C51.3085 55.3115 47.8691 51.8557 43.1446 49.8785Z" fill="#EC3F20"/>
</svg>
