<svg width="50" height="50" viewBox="0 0 50 50" fill="none" xmlns="http://www.w3.org/2000/svg">
<path d="M9.27058 43.2646V30.6823C9.94169 30.7477 10.7331 30.7818 11.597 30.7818C16.8617 30.7818 21.1183 29.393 23.9084 26.7642C26.1938 24.593 27.4529 21.3582 27.4529 17.6562C27.4529 14.0606 25.9491 10.8094 23.3297 8.73808C20.7546 6.67843 16.9705 5.677 11.7612 5.677C7.24866 5.677 3.43549 5.93659 0.426693 6.44878C0.180232 6.49041 0 6.70406 0 6.95401V43.2646C0 43.5477 0.229442 43.7772 0.512606 43.7772H8.75798C9.04114 43.7772 9.27058 43.5477 9.27058 43.2646ZM9.27058 23.2393V13.2057C9.77396 13.1092 10.7194 12.9814 12.1976 12.9814C16.0013 12.9814 18.1827 14.7649 18.1827 17.8744C18.1827 21.3142 15.7007 23.3681 11.5425 23.3681C10.5449 23.3681 9.83445 23.3287 9.27058 23.2393Z" fill="#EC3F20"/>
<path d="M42.3946 26.4547C38.9974 25.2658 38.4243 24.6997 38.4243 23.8808C38.4243 22.4264 40.087 22.2092 41.0786 22.2092C43.184 22.2092 45.3802 22.9991 46.6211 23.6753C46.7601 23.751 46.9254 23.7583 47.0708 23.6954C47.2153 23.6322 47.3234 23.5059 47.3628 23.353L48.8372 17.6202C48.8973 17.3862 48.786 17.142 48.57 17.0342C47.0394 16.269 44.1961 15.451 40.8053 15.451C34.1057 15.451 29.4267 19.2544 29.4267 24.6913C29.3814 27.3439 30.7219 30.9756 37.3669 33.2124C40.5947 34.2885 40.948 34.8477 40.948 35.7841C40.948 36.211 40.948 37.5101 37.9115 37.5101C35.6368 37.5101 32.5657 36.4999 31.0246 35.5641C30.8847 35.4794 30.7137 35.4661 30.5628 35.5284C30.4123 35.5905 30.3001 35.7207 30.2608 35.879L28.7867 41.831C28.7305 42.058 28.8351 42.294 29.0406 42.4051C31.2956 43.6239 34.5291 44.3231 37.9115 44.3231C45.3679 44.3231 49.9998 40.8209 49.9998 35.1765C49.9408 30.934 47.5942 28.2439 42.3946 26.4547Z" fill="#EC3F20"/>
</svg>
