<svg width="60" height="62" viewBox="0 0 60 62" fill="none" xmlns="http://www.w3.org/2000/svg">
<path d="M45.4 59.9758H14.6C7.6406 59.9758 2 54.1362 2 46.9313V15.0446C2 7.83962 7.6406 2 14.6 2H45.4C52.3594 2 58 7.83962 58 15.0446V46.9313C58 54.1362 52.3594 59.9758 45.4 59.9758Z" stroke="#EC3F20" stroke-width="3" stroke-miterlimit="10"/>
<path d="M9.0196 52.7434C9.0196 52.7434 7.63361 32.3605 28.418 26.9253C49.2024 21.49 50.587 11.9791 50.587 9.26147C51.973 16.0563 50.6822 31.2894 33.9606 36.4377C20.4576 40.5946 11.7902 40.5148 9.0196 52.7434Z" stroke="#EC3F20" stroke-width="3" stroke-miterlimit="10" stroke-linejoin="round"/>
<path d="M50.6724 10.4949C50.6724 10.4949 51.924 23.2626 31.9964 28.5355C20.5584 31.5879 16.0896 35.4738 13.4982 39.1741C15.7326 33.9939 20.0222 29.7371 31.3706 26.315C42.719 22.893 49.243 17.0635 50.6724 10.4949Z" fill="#EC3F20"/>
</svg>
