<svg width="60" height="51" viewBox="0 0 60 51" fill="none" xmlns="http://www.w3.org/2000/svg">
<path d="M59.0734 1.38977C58.3406 0.493468 57.2428 0 55.9822 0C55.2969 0 54.5709 0.144195 53.8247 0.429381L3.03598 19.817C0.340669 20.8456 -0.0223362 22.3892 0.00100969 23.2177C0.0243556 24.0463 0.474336 25.567 3.22366 26.4417C3.24014 26.4468 3.25662 26.4518 3.2731 26.4564L13.808 29.4712L19.5054 45.763C20.2822 47.984 22.0258 49.3637 24.0564 49.3637C25.3368 49.3637 26.5961 48.8272 27.6984 47.8128L34.2146 41.813L43.6661 49.4233C43.667 49.4242 43.6684 49.4246 43.6693 49.4255L43.759 49.4979C43.7672 49.5043 43.7759 49.5111 43.7842 49.5176C44.8347 50.3324 45.9814 50.7627 47.1016 50.7631H47.102C49.2906 50.7631 51.0333 49.1431 51.541 46.6364L59.8626 5.54579C60.1968 3.89648 59.9166 2.42065 59.0734 1.38977ZM17.3324 28.8986L37.6575 18.5151L25.0017 31.9628C24.7943 32.183 24.6474 32.4526 24.5751 32.746L22.1347 42.631L17.3324 28.8986ZM25.3167 45.2265C25.2324 45.3038 25.1477 45.373 25.0631 45.4366L27.3271 36.2667L31.4456 39.5832L25.3167 45.2265ZM56.417 4.84771L48.0954 45.9388C48.0153 46.332 47.7594 47.247 47.1016 47.247C46.7766 47.247 46.3682 47.0699 45.9503 46.7481L35.2405 38.1248C35.2391 38.1234 35.2373 38.122 35.2355 38.1211L28.8629 32.9896L47.1647 13.5424C47.7507 12.9199 47.8038 11.9664 47.2906 11.2825C46.777 10.5986 45.8464 10.3834 45.0851 10.7725L14.9836 26.1506L4.30535 23.0955L55.0785 3.71383C55.5075 3.54995 55.8068 3.51562 55.9822 3.51562C56.0897 3.51562 56.2811 3.52843 56.352 3.61587C56.4454 3.72985 56.5644 4.11849 56.417 4.84771Z" fill="#EC3F20"/>
</svg>
